<svg version="1.1" xmlns="http://www.w3.org/2000/svg" xmlns:xlink="http://www.w3.org/1999/xlink" x="0px" y="0px" class="incognito-logo" width="185.251px" height="185.251px" viewBox="213.709 305.237 185.251 185.251" enable-background="new 213.709 305.237 185.251 185.251" xml:space="preserve">
<g id="circle">
	<g>
		<circle id="SVGID_2_" fill="#D6D6D6" cx="306.335" cy="397.863" r="92.626"></circle>
	</g>
</g>
<g class="glasses">
	<path fill="#424242" d="M332.375,408.008c-8.551,0-16.064,5.053-19.303,12.566c-4.793-1.036-10.105-1.036-14.898,0.26
		c-3.239-7.514-10.752-12.696-19.303-12.696c-11.659,0-21.116,9.457-21.116,21.116s9.457,21.116,21.116,21.116
		s21.116-9.457,21.116-21.116c0-0.647,0-1.036,0-1.555c3.757-1.036,7.643-1.036,11.659-0.259c0,0.647,0,1.296,0,1.942
		c0,11.66,9.457,21.117,21.117,21.117c11.658,0,21.115-9.457,21.115-21.117C353.75,417.465,344.033,408.008,332.375,408.008z
		 M278.872,443.764c-8.162,0-14.768-6.607-14.768-14.769s6.606-14.769,14.768-14.769s14.769,6.607,14.769,14.769
		S286.903,443.764,278.872,443.764z M332.375,443.764c-8.162,0-14.77-6.607-14.77-14.769s6.607-14.769,14.77-14.769
		c8.16,0,14.768,6.607,14.768,14.769S340.535,443.764,332.375,443.764z"></path>
</g>
<g class="hat-bottom">
	<path fill="#424242" d="M306.077,387.297c-24.873,0-48.062,4.146-69.438,12.695h139.003
		C354.397,391.442,330.949,387.297,306.077,387.297z"></path>
</g>
<g class="hat-top">
	<path fill="#424242" d="M333.541,343.53c-8.291-3.757-19.821-5.959-27.464-5.959c-7.644,0-19.043,2.202-27.464,5.959
		l-10.364,32.775h75.396L333.541,343.53z"></path>
</g>
</svg>